<mxfile host="app.diagrams.net" modified="2021-10-06T02:03:51.608Z" agent="5.0 (Windows NT 10.0; Win64; x64) AppleWebKit/537.36 (KHTML, like Gecko) Chrome/94.0.4606.61 Safari/537.36" etag="2YcqrRgYSfXpcLc_4KPg" version="15.4.3" type="github">
  <diagram id="9764_bwMrohZAFbPmsWr" name="Page-1">
    <mxGraphModel dx="1422" dy="737" grid="1" gridSize="10" guides="1" tooltips="1" connect="1" arrows="1" fold="1" page="1" pageScale="1" pageWidth="3300" pageHeight="4681" math="0" shadow="0">
      <root>
        <mxCell id="0" />
        <mxCell id="1" parent="0" />
        <mxCell id="prRc7P51FGT5b40RzYyY-56" value="LaserGate()&lt;br&gt;Initialize startTime &amp;amp; sets laserPin &amp;amp; assigns&amp;nbsp; pin &amp;amp; INPUT as parameter to pinMode&amp;nbsp;" style="rounded=0;whiteSpace=wrap;html=1;" parent="1" vertex="1">
          <mxGeometry x="950" y="1840" width="140" height="90" as="geometry" />
        </mxCell>
        <mxCell id="kmB6eX4eZpZFCGpuayRA-11" style="edgeStyle=orthogonalEdgeStyle;rounded=0;orthogonalLoop=1;jettySize=auto;html=1;entryX=0;entryY=0.5;entryDx=0;entryDy=0;" edge="1" parent="1" source="prRc7P51FGT5b40RzYyY-57" target="prRc7P51FGT5b40RzYyY-58">
          <mxGeometry relative="1" as="geometry" />
        </mxCell>
        <mxCell id="prRc7P51FGT5b40RzYyY-57" value="Sets sate to &#39;LG_STATE_FULL&#39;" style="rounded=0;whiteSpace=wrap;html=1;" parent="1" vertex="1">
          <mxGeometry x="760" y="2110" width="120" height="60" as="geometry" />
        </mxCell>
        <mxCell id="kmB6eX4eZpZFCGpuayRA-4" style="edgeStyle=orthogonalEdgeStyle;rounded=0;orthogonalLoop=1;jettySize=auto;html=1;" edge="1" parent="1" source="prRc7P51FGT5b40RzYyY-58" target="prRc7P51FGT5b40RzYyY-63">
          <mxGeometry relative="1" as="geometry" />
        </mxCell>
        <mxCell id="prRc7P51FGT5b40RzYyY-58" value="&lt;span style=&quot;color: rgb(0 , 0 , 0) ; font-family: &amp;#34;helvetica&amp;#34; ; font-size: 12px ; font-style: normal ; font-weight: 400 ; letter-spacing: normal ; text-align: center ; text-indent: 0px ; text-transform: none ; word-spacing: 0px ; background-color: rgb(248 , 249 , 250) ; display: inline ; float: none&quot;&gt;GetState()&lt;br&gt;&lt;/span&gt;Returns state." style="rounded=0;whiteSpace=wrap;html=1;" parent="1" vertex="1">
          <mxGeometry x="960" y="2110" width="120" height="60" as="geometry" />
        </mxCell>
        <mxCell id="prRc7P51FGT5b40RzYyY-59" value="" style="endArrow=classic;html=1;rounded=0;edgeStyle=orthogonalEdgeStyle;entryX=0.5;entryY=0;entryDx=0;entryDy=0;" parent="1" target="prRc7P51FGT5b40RzYyY-62" edge="1">
          <mxGeometry width="50" height="50" relative="1" as="geometry">
            <mxPoint x="940" y="1930" as="sourcePoint" />
            <mxPoint x="939.58" y="2020.000000000001" as="targetPoint" />
          </mxGeometry>
        </mxCell>
        <mxCell id="prRc7P51FGT5b40RzYyY-72" value="" style="edgeStyle=orthogonalEdgeStyle;rounded=0;orthogonalLoop=1;jettySize=auto;html=1;" parent="1" source="prRc7P51FGT5b40RzYyY-62" target="prRc7P51FGT5b40RzYyY-71" edge="1">
          <mxGeometry relative="1" as="geometry" />
        </mxCell>
        <mxCell id="kmB6eX4eZpZFCGpuayRA-3" style="edgeStyle=orthogonalEdgeStyle;rounded=0;orthogonalLoop=1;jettySize=auto;html=1;entryX=0.5;entryY=0;entryDx=0;entryDy=0;" edge="1" parent="1" source="prRc7P51FGT5b40RzYyY-62" target="prRc7P51FGT5b40RzYyY-58">
          <mxGeometry relative="1" as="geometry" />
        </mxCell>
        <mxCell id="prRc7P51FGT5b40RzYyY-62" value="&#xa;&#xa;&lt;span style=&quot;color: rgb(0, 0, 0); font-family: helvetica; font-size: 12px; font-style: normal; font-weight: 400; letter-spacing: normal; text-align: center; text-indent: 0px; text-transform: none; word-spacing: 0px; background-color: rgb(248, 249, 250); display: inline; float: none;&quot;&gt;Update()&lt;/span&gt;&lt;br style=&quot;color: rgb(0, 0, 0); font-family: helvetica; font-size: 12px; font-style: normal; font-weight: 400; letter-spacing: normal; text-align: center; text-indent: 0px; text-transform: none; word-spacing: 0px; background-color: rgb(248, 249, 250);&quot;&gt;&lt;span style=&quot;color: rgb(0, 0, 0); font-family: helvetica; font-size: 12px; font-style: normal; font-weight: 400; letter-spacing: normal; text-align: center; text-indent: 0px; text-transform: none; word-spacing: 0px; background-color: rgb(248, 249, 250); display: inline; float: none;&quot;&gt;Examine the laser data.&lt;/span&gt;&#xa;&#xa;" style="rhombus;whiteSpace=wrap;html=1;" parent="1" vertex="1">
          <mxGeometry x="960" y="1985" width="120" height="90" as="geometry" />
        </mxCell>
        <mxCell id="kmB6eX4eZpZFCGpuayRA-5" style="edgeStyle=orthogonalEdgeStyle;rounded=0;orthogonalLoop=1;jettySize=auto;html=1;entryX=0.5;entryY=0;entryDx=0;entryDy=0;" edge="1" parent="1" source="prRc7P51FGT5b40RzYyY-63" target="kmB6eX4eZpZFCGpuayRA-2">
          <mxGeometry relative="1" as="geometry" />
        </mxCell>
        <mxCell id="prRc7P51FGT5b40RzYyY-63" value="SetTimeout()&lt;br&gt;&amp;nbsp;sets timeout to &#39;to&#39;" style="rounded=0;whiteSpace=wrap;html=1;" parent="1" vertex="1">
          <mxGeometry x="960" y="2190" width="120" height="60" as="geometry" />
        </mxCell>
        <mxCell id="prRc7P51FGT5b40RzYyY-65" value="Define the constraints in LaserGateLib.h" style="rounded=0;whiteSpace=wrap;html=1;" parent="1" vertex="1">
          <mxGeometry x="650" y="1840" width="120" height="60" as="geometry" />
        </mxCell>
        <mxCell id="prRc7P51FGT5b40RzYyY-66" value="dispatch" style="html=1;verticalAlign=bottom;startArrow=oval;startFill=1;endArrow=block;startSize=8;rounded=0;edgeStyle=orthogonalEdgeStyle;entryX=0;entryY=0.5;entryDx=0;entryDy=0;" parent="1" target="prRc7P51FGT5b40RzYyY-65" edge="1">
          <mxGeometry width="60" relative="1" as="geometry">
            <mxPoint x="570" y="1869.58" as="sourcePoint" />
            <mxPoint x="630" y="1869.58" as="targetPoint" />
          </mxGeometry>
        </mxCell>
        <mxCell id="prRc7P51FGT5b40RzYyY-69" value="" style="endArrow=classic;html=1;rounded=0;edgeStyle=orthogonalEdgeStyle;" parent="1" edge="1">
          <mxGeometry width="50" height="50" relative="1" as="geometry">
            <mxPoint x="770" y="1869.5800000000008" as="sourcePoint" />
            <mxPoint x="950" y="1869.5800000000008" as="targetPoint" />
          </mxGeometry>
        </mxCell>
        <mxCell id="kmB6eX4eZpZFCGpuayRA-14" style="edgeStyle=orthogonalEdgeStyle;rounded=0;orthogonalLoop=1;jettySize=auto;html=1;entryX=0;entryY=0.75;entryDx=0;entryDy=0;" edge="1" parent="1" source="prRc7P51FGT5b40RzYyY-70" target="prRc7P51FGT5b40RzYyY-58">
          <mxGeometry relative="1" as="geometry">
            <Array as="points">
              <mxPoint x="650" y="2200" />
              <mxPoint x="920" y="2200" />
              <mxPoint x="920" y="2155" />
            </Array>
          </mxGeometry>
        </mxCell>
        <mxCell id="prRc7P51FGT5b40RzYyY-70" value="Sets startTime to &#39;millis&#39; &amp;amp; state to &#39;LG_STATE_UNDECIDED&#39;" style="rounded=0;whiteSpace=wrap;html=1;" parent="1" vertex="1">
          <mxGeometry x="560" y="2000" width="150" height="60" as="geometry" />
        </mxCell>
        <mxCell id="kmB6eX4eZpZFCGpuayRA-10" style="edgeStyle=orthogonalEdgeStyle;rounded=0;orthogonalLoop=1;jettySize=auto;html=1;entryX=0.5;entryY=0;entryDx=0;entryDy=0;" edge="1" parent="1" source="prRc7P51FGT5b40RzYyY-71" target="prRc7P51FGT5b40RzYyY-57">
          <mxGeometry relative="1" as="geometry" />
        </mxCell>
        <mxCell id="kmB6eX4eZpZFCGpuayRA-12" style="edgeStyle=orthogonalEdgeStyle;rounded=0;orthogonalLoop=1;jettySize=auto;html=1;entryX=1;entryY=0.75;entryDx=0;entryDy=0;" edge="1" parent="1" source="prRc7P51FGT5b40RzYyY-71" target="prRc7P51FGT5b40RzYyY-70">
          <mxGeometry relative="1" as="geometry">
            <Array as="points">
              <mxPoint x="730" y="2030" />
            </Array>
          </mxGeometry>
        </mxCell>
        <mxCell id="prRc7P51FGT5b40RzYyY-71" value="Checks StartTime" style="rhombus;whiteSpace=wrap;html=1;" parent="1" vertex="1">
          <mxGeometry x="780" y="1990" width="80" height="80" as="geometry" />
        </mxCell>
        <mxCell id="prRc7P51FGT5b40RzYyY-73" style="edgeStyle=orthogonalEdgeStyle;rounded=0;orthogonalLoop=1;jettySize=auto;html=1;exitX=0.5;exitY=1;exitDx=0;exitDy=0;" parent="1" source="prRc7P51FGT5b40RzYyY-70" target="prRc7P51FGT5b40RzYyY-70" edge="1">
          <mxGeometry relative="1" as="geometry" />
        </mxCell>
        <mxCell id="prRc7P51FGT5b40RzYyY-74" value="Yes" style="text;html=1;strokeColor=none;fillColor=none;align=center;verticalAlign=middle;whiteSpace=wrap;rounded=0;" parent="1" vertex="1">
          <mxGeometry x="868" y="1990" width="60" height="30" as="geometry" />
        </mxCell>
        <mxCell id="kmB6eX4eZpZFCGpuayRA-6" style="edgeStyle=orthogonalEdgeStyle;rounded=0;orthogonalLoop=1;jettySize=auto;html=1;exitX=0.5;exitY=1;exitDx=0;exitDy=0;entryX=1;entryY=0.5;entryDx=0;entryDy=0;" edge="1" parent="1" source="prRc7P51FGT5b40RzYyY-75" target="prRc7P51FGT5b40RzYyY-58">
          <mxGeometry relative="1" as="geometry" />
        </mxCell>
        <mxCell id="prRc7P51FGT5b40RzYyY-75" value="Sets startTime to&amp;nbsp; &#39;0&#39; &amp;amp; state to &#39;LG_STATE_EMPTY&#39;" style="rounded=0;whiteSpace=wrap;html=1;" parent="1" vertex="1">
          <mxGeometry x="1200" y="2000" width="120" height="60" as="geometry" />
        </mxCell>
        <mxCell id="prRc7P51FGT5b40RzYyY-76" value="" style="edgeStyle=segmentEdgeStyle;endArrow=classic;html=1;rounded=0;entryX=0;entryY=0.5;entryDx=0;entryDy=0;" parent="1" target="prRc7P51FGT5b40RzYyY-75" edge="1">
          <mxGeometry width="50" height="50" relative="1" as="geometry">
            <mxPoint x="1080" y="2029.58" as="sourcePoint" />
            <mxPoint x="1170" y="2029.58" as="targetPoint" />
          </mxGeometry>
        </mxCell>
        <mxCell id="prRc7P51FGT5b40RzYyY-77" value="No" style="text;html=1;strokeColor=none;fillColor=none;align=center;verticalAlign=middle;whiteSpace=wrap;rounded=0;" parent="1" vertex="1">
          <mxGeometry x="1110" y="1990" width="60" height="30" as="geometry" />
        </mxCell>
        <mxCell id="kmB6eX4eZpZFCGpuayRA-1" value="" style="ellipse;fillColor=#000000;strokeColor=none;" vertex="1" parent="1">
          <mxGeometry x="550" y="1855" width="30" height="30" as="geometry" />
        </mxCell>
        <mxCell id="kmB6eX4eZpZFCGpuayRA-2" value="" style="ellipse;html=1;shape=endState;fillColor=#000000;strokeColor=#000000;" vertex="1" parent="1">
          <mxGeometry x="1005" y="2270" width="30" height="30" as="geometry" />
        </mxCell>
      </root>
    </mxGraphModel>
  </diagram>
</mxfile>
